<svg width="36" height="36" viewBox="0 0 36 36" fill="none" xmlns="http://www.w3.org/2000/svg">
<path d="M3.07149 27.849C2.97401 28.2875 2.97625 28.7423 3.07805 29.1798C3.17985 29.6174 3.3786 30.0265 3.65965 30.3769C3.94069 30.7273 4.29685 31.0102 4.70183 31.2046C5.10681 31.399 5.55027 31.4999 5.99949 31.5H29.9995C30.4487 31.4999 30.8922 31.399 31.2971 31.2046C31.7021 31.0102 32.0583 30.7273 32.3393 30.3769C32.6204 30.0265 32.8191 29.6174 32.9209 29.1798C33.0227 28.7423 33.025 28.2875 32.9275 27.849L29.9275 14.349C29.7794 13.6828 29.4086 13.087 28.8763 12.66C28.344 12.2329 27.6819 12.0001 26.9995 12H8.99949C8.31703 12.0001 7.65502 12.2329 7.1227 12.66C6.59038 13.087 6.21958 13.6828 6.07148 14.349L3.07149 27.849Z" stroke="#3F3229" stroke-linecap="round" stroke-linejoin="round"/>
<path d="M12 16.5V9C12 7.4087 12.6321 5.88258 13.7574 4.75736C14.8826 3.63214 16.4087 3 18 3C19.5913 3 21.1174 3.63214 22.2426 4.75736C23.3679 5.88258 24 7.4087 24 9V16.5" stroke="#3F3229" stroke-linecap="round" stroke-linejoin="round"/>
</svg>
