<svg width="24" height="24" viewBox="0 0 24 24" fill="none" xmlns="http://www.w3.org/2000/svg">
  <path d="M6.78 8.1C7.74 8.1 8.52 7.32 8.52 6.36C8.52 5.4 7.74 4.62 6.78 4.62C5.82 4.62 5.04 5.4 5.04 6.36C5.04 7.32 5.82 8.1 6.78 8.1Z" fill="#3F3229"/>
  <path d="M5.34 9.66H8.16V18.96H5.34V9.66Z" fill="#3F3229"/>
  <path d="M9.96 9.66H12.66V10.92H12.7C13.08 10.2 14 9.42 15.42 9.42C18.3 9.42 18.84 11.28 18.84 13.68V18.96H16.02V14.28C16.02 13.14 15.98 11.7 14.44 11.7C12.88 11.7 12.64 12.9 12.64 14.2V18.96H9.82V9.66H9.96Z" fill="#3F3229"/>
</svg>
