<svg width="414" height="35" viewBox="0 0 414 35" fill="none" xmlns="http://www.w3.org/2000/svg">
<path d="M0.915917 32.3837L0.00840807 26.9269C-0.0858786 26.369 0.636986 26.0744 0.96699 26.534C3.80345 30.4783 7.59063 32.5998 11.7942 32.5998C15.9979 32.5998 18.744 30.3487 18.744 26.8012C18.744 23.8783 16.9211 21.6704 12.9925 20.1854L9.68458 18.94C3.30844 16.5435 0.432698 13.0903 0.432698 8.6824C0.432698 3.45734 4.69917 0.00802612 11.1696 0.00802612C14.3832 0.00802612 18.0054 0.95875 20.6729 2.46341C20.8183 2.54591 20.9165 2.69519 20.9361 2.86019L21.5451 7.40953C21.6158 7.94382 20.9322 8.24238 20.6022 7.81416C18.0368 4.47092 14.1986 2.40447 10.2582 2.40447C6.61633 2.40447 4.45953 4.22736 4.45953 7.29561C4.45953 10.1242 6.18419 12.0885 10.7374 13.8132L14.0453 15.0585C20.3233 17.4078 23.0104 20.6686 23.0104 25.1708C23.0104 31.1619 18.3118 34.9962 10.9299 34.9962C7.57884 34.9962 3.82309 34.1359 1.19485 32.7726C1.04556 32.6941 0.943417 32.5526 0.915917 32.3837Z" fill="#3F3229"/>
<path d="M28.7615 16.8734C28.7615 6.80828 35.5698 0 45.682 0C49.4103 0 53.4096 0.950728 56.2735 2.45931C56.4268 2.54182 56.5289 2.69503 56.5525 2.86789L57.1811 7.84937C57.2478 8.39545 56.5525 8.67044 56.2264 8.23043C53.5157 4.5454 49.532 2.40039 45.3049 2.40039C38.5948 2.40039 34.6151 7.71972 34.6151 16.6377C34.6151 26.3217 39.3137 32.745 46.3106 32.745C50.2235 32.745 53.5707 30.7257 56.6546 26.4788C56.9885 26.0153 57.7193 26.3335 57.6053 26.8953L56.5171 32.2735C56.4857 32.4228 56.3993 32.5525 56.2696 32.6311C53.7317 34.1357 50.0388 35 46.1652 35C35.5226 35 28.7654 27.9521 28.7654 16.8812L28.7615 16.8734Z" fill="#3F3229"/>
<path d="M65.2941 0.722899H84.6975C84.9921 0.722899 85.2318 0.962551 85.2318 1.2572V4.68688C85.2318 5.12296 84.7407 5.37046 84.3871 5.1151C82.4778 3.72044 79.4135 2.97793 75.5006 2.97793H70.3777C70.0831 2.97793 69.8434 3.21757 69.8434 3.51222V12.1355C69.8434 14.4377 70.3698 14.8188 73.0059 14.8188C75.2453 14.8188 77.9167 14.532 79.496 14.1431C79.8299 14.0606 80.1482 14.3198 80.1482 14.6616V16.952C80.1482 17.2899 79.8417 17.5413 79.5117 17.4745C78.1406 17.1916 75.2649 16.9284 72.9549 16.9284H70.3738C70.0791 16.9284 69.8395 17.1681 69.8395 17.4627V27.3314C69.8395 31.2129 70.9434 32.2697 74.4399 32.2697C78.6671 32.2697 82.2617 30.7611 85.3418 27.8303C85.7386 27.4532 86.375 27.8382 86.2218 28.3646L84.5718 33.904C84.505 34.1318 84.2968 34.285 84.0611 34.285H65.2902C64.9955 34.285 64.7559 34.0454 64.7559 33.7507V1.26505C64.7559 0.970404 64.9955 0.730764 65.2902 0.730764L65.2941 0.722899Z" fill="#3F3229"/>
<path d="M94.346 0.722899H98.4514C98.6125 0.722899 98.7618 0.793614 98.8639 0.91933L115.529 21.2381C117.014 23.0099 117.399 23.3006 118.02 23.3006C119.026 23.3006 119.265 22.1495 118.833 18.987L116.515 1.32791C116.472 1.00969 116.723 0.726832 117.046 0.726832H120.939C121.233 0.726832 121.473 0.966483 121.473 1.26113V33.79C121.473 34.285 120.856 34.5129 120.534 34.1357L97.2139 6.71403C96.876 6.31724 96.2278 6.59225 96.2789 7.11083L98.7971 33.6997C98.8286 34.014 98.5811 34.2811 98.2668 34.2811H94.3539C94.0592 34.2811 93.8196 34.0415 93.8196 33.7468V1.26113C93.8196 0.966483 94.0592 0.726832 94.3539 0.726832L94.346 0.722899Z" fill="#3F3229"/>
<path d="M140.884 3.5083C140.884 3.21365 140.645 2.974 140.35 2.974H138.582C134.972 2.974 131.943 4.10937 129.326 6.4351C128.93 6.78475 128.321 6.41154 128.462 5.90082L129.755 1.11576C129.817 0.883973 130.03 0.722899 130.269 0.722899H157.608C157.903 0.722899 158.143 0.962551 158.143 1.2572V6.09332C158.143 6.58439 157.53 6.81617 157.212 6.44296C155.349 4.25472 152.175 2.97793 148.364 2.97793H146.691C146.396 2.97793 146.157 3.21757 146.157 3.51222V33.7468C146.157 34.0415 145.917 34.2811 145.622 34.2811H141.415C141.12 34.2811 140.88 34.0415 140.88 33.7468V3.51222L140.884 3.5083Z" fill="#3F3229"/>
<path d="M163.8 32.3835L162.892 26.9267C162.798 26.3688 163.521 26.0742 163.851 26.5338C166.687 30.4781 170.475 32.5996 174.678 32.5996C178.882 32.5996 181.628 30.3485 181.628 26.801C181.628 23.8781 179.805 21.6702 175.877 20.1852L172.569 18.9398C166.192 16.5434 163.317 13.0901 163.317 8.68221C163.317 3.45715 167.583 0.0078373 174.054 0.0078373C177.267 0.0078373 180.889 0.958561 183.557 2.46322C183.702 2.54572 183.801 2.695 183.82 2.86L184.429 7.40934C184.5 7.94363 183.816 8.24219 183.486 7.81398C180.921 4.47073 177.083 2.40428 173.142 2.40428C169.5 2.40428 167.344 4.22717 167.344 7.29542C167.344 10.124 169.068 12.0883 173.621 13.813L176.929 15.0583C183.207 17.4076 185.894 20.6684 185.894 25.1706C185.894 31.1617 181.196 34.996 173.814 34.996C170.463 34.996 166.707 34.1357 164.079 32.7725C163.93 32.6939 163.827 32.5525 163.8 32.3835Z" fill="#3F3229"/>
<path d="M207.608 1.25322C207.608 0.958574 207.848 0.718934 208.142 0.718934H217.386C226.493 0.718934 231.671 3.68897 231.671 9.01224C231.671 12.2966 229.647 14.6891 226.033 15.7852C225.526 15.9384 225.522 16.6455 226.029 16.8027C230.873 18.3427 233.541 21.3127 233.541 25.3553C233.541 30.9142 228.555 34.2693 220.309 34.2693H208.138C207.844 34.2693 207.604 34.0296 207.604 33.735V1.2493L207.608 1.25322ZM226.398 9.39724C226.398 4.93826 223.236 2.97395 215.948 2.97395H213.222C212.927 2.97395 212.688 3.2136 212.688 3.50825V12.273C212.688 14.8619 213.886 15.628 217.767 15.628C223.664 15.628 226.395 13.6637 226.395 9.39724H226.398ZM228.029 25.4063C228.029 20.1341 224.195 17.6905 215.948 17.6905H213.222C212.927 17.6905 212.688 17.9302 212.688 18.2248V27.3274C212.688 31.2089 213.933 32.2657 218.537 32.2657C225.008 32.2657 228.029 30.1089 228.029 25.4103V25.4063Z" fill="#3F3229"/>
<path d="M248.088 20.1498L236.904 1.52823C236.692 1.17465 236.947 0.718934 237.359 0.718934H241.96C242.148 0.718934 242.325 0.821075 242.419 0.986077L251.687 17.0109C251.899 17.3802 252.441 17.3605 252.626 16.9755L260.381 1.0175C260.471 0.832856 260.656 0.718934 260.86 0.718934H264.235C264.648 0.718934 264.907 1.17072 264.691 1.52823L253.506 20.1498C253.455 20.2323 253.431 20.3266 253.431 20.4249V33.7389C253.431 34.0336 253.192 34.2732 252.897 34.2732H248.69C248.395 34.2732 248.155 34.0336 248.155 33.7389V20.4249C248.155 20.3266 248.128 20.2323 248.081 20.1498H248.088Z" fill="#3F3229"/>
<path d="M285.222 32.3835L284.314 26.9267C284.22 26.3688 284.943 26.0742 285.273 26.5338C288.109 30.4781 291.897 32.5996 296.1 32.5996C300.304 32.5996 303.05 30.3485 303.05 26.801C303.05 23.8781 301.227 21.6702 297.298 20.1852L293.99 18.9398C287.614 16.5434 284.739 13.0901 284.739 8.68221C284.739 3.45715 289.005 0.0078373 295.475 0.0078373C298.689 0.0078373 302.311 0.958561 304.979 2.46322C305.124 2.54572 305.222 2.695 305.242 2.86L305.851 7.40934C305.922 7.94363 305.238 8.24219 304.908 7.81398C302.343 4.47073 298.504 2.40428 294.564 2.40428C290.922 2.40428 288.765 4.22717 288.765 7.29542C288.765 10.124 290.49 12.0883 295.043 13.813L298.351 15.0583C304.629 17.4076 307.316 20.6684 307.316 25.1706C307.316 31.1617 302.618 34.996 295.236 34.996C291.885 34.996 288.129 34.1357 285.501 32.7725C285.351 32.6939 285.249 32.5525 285.222 32.3835Z" fill="#3F3229"/>
<path d="M326.979 0.24361H328.016C328.224 0.24361 328.417 0.365405 328.503 0.557907L343.361 33.5268C343.518 33.8804 343.263 34.2772 342.874 34.2772H338.113C337.897 34.2772 337.704 34.1475 337.622 33.9472L334.212 25.6971C333.54 24.0667 333.108 23.7799 330.857 23.7799H320.351C320.124 23.7799 319.923 23.9214 319.849 24.1374L316.407 33.9236C316.332 34.1357 316.132 34.2811 315.904 34.2811H312.121C311.736 34.2811 311.477 33.8804 311.634 33.5307L326.492 0.561839C326.578 0.369337 326.767 0.247543 326.979 0.247543V0.24361ZM323.659 21.6703H331.674C332.055 21.6703 332.314 21.2813 332.165 20.9277L326.716 8.07727C326.527 7.63727 325.899 7.64512 325.726 8.09691L322.795 15.7773C321.836 18.2209 321.451 19.4192 321.451 20.3306C321.451 21.2892 322.123 21.6742 323.655 21.6742L323.659 21.6703Z" fill="#3F3229"/>
<path d="M349.929 1.25322C349.929 0.958574 350.169 0.718934 350.464 0.718934H360.619C369.486 0.718934 374.998 4.07396 374.998 9.53866C374.998 13.0469 372.739 15.5494 368.846 16.6298C368.347 16.7673 368.319 17.447 368.799 17.6395C371.081 18.5627 372.464 20.3659 373.175 23.2456L374.42 28.2781C375.128 31.1735 375.599 32.4032 376.66 33.3303C377.033 33.6564 376.813 34.2693 376.318 34.2693H373.702C370.779 34.2693 369.675 33.3578 369.195 30.5803L368.044 23.9174C367.42 20.1774 365.263 18.3584 361.334 18.3584H355.638C355.343 18.3584 355.103 18.598 355.103 18.8927V33.7389C355.103 34.0336 354.864 34.2732 354.569 34.2732H350.46C350.165 34.2732 349.926 34.0336 349.926 33.7389V1.25322H349.929ZM369.726 9.73116C369.726 4.9854 366.61 2.97395 358.843 2.97395H355.638C355.343 2.97395 355.103 3.2136 355.103 3.50825V12.4655C355.103 15.3412 356.494 16.2527 360.662 16.2527C367.086 16.2527 369.722 14.0958 369.722 9.73509L369.726 9.73116Z" fill="#3F3229"/>
<path d="M396.625 0.24361H397.662C397.871 0.24361 398.063 0.365405 398.15 0.557907L413.007 33.5268C413.165 33.8804 412.909 34.2772 412.52 34.2772H407.759C407.543 34.2772 407.35 34.1475 407.268 33.9472L403.858 25.6971C403.186 24.0667 402.754 23.7799 400.503 23.7799H389.998C389.77 23.7799 389.569 23.9214 389.495 24.1374L386.053 33.9236C385.979 34.1357 385.778 34.2811 385.55 34.2811H381.767C381.382 34.2811 381.123 33.8804 381.28 33.5307L396.138 0.561839C396.224 0.369337 396.413 0.247543 396.625 0.247543V0.24361ZM393.309 21.6703H401.324C401.705 21.6703 401.964 21.2813 401.815 20.9277L396.366 8.07727C396.177 7.63727 395.549 7.64512 395.376 8.09691L392.445 15.7773C391.487 18.2209 391.102 19.4192 391.102 20.3306C391.102 21.2892 391.773 21.6742 393.306 21.6742L393.309 21.6703Z" fill="#3F3229"/>
</svg>
