<svg width="36" height="36" viewBox="0 0 36 36" fill="none" xmlns="http://www.w3.org/2000/svg">
<path d="M3 14.2498C3.00003 12.5806 3.50639 10.9507 4.4522 9.57531C5.39801 8.19993 6.73878 7.1438 8.29741 6.54642C9.85605 5.94903 11.5592 5.83848 13.182 6.22938C14.8048 6.62028 16.2708 7.49424 17.3865 8.73582C17.4651 8.81984 17.5601 8.88682 17.6656 8.93262C17.7711 8.97841 17.885 9.00204 18 9.00204C18.115 9.00204 18.2289 8.97841 18.3344 8.93262C18.4399 8.88682 18.5349 8.81984 18.6135 8.73582C19.7257 7.48617 21.192 6.60487 22.8175 6.20922C24.4429 5.81357 26.1502 5.92234 27.7123 6.52104C29.2744 7.11975 30.6171 8.17999 31.5617 9.56067C32.5063 10.9413 33.008 12.577 33 14.2498C33 17.6848 30.75 20.2498 28.5 22.4998L20.262 30.4693C19.9825 30.7903 19.6379 31.0482 19.2511 31.2258C18.8642 31.4034 18.4441 31.4966 18.0184 31.4993C17.5928 31.502 17.1715 31.4141 16.7824 31.2414C16.3934 31.0687 16.0455 30.8153 15.762 30.4978L7.5 22.4998C5.25 20.2498 3 17.6998 3 14.2498Z" stroke="#3F3229" stroke-linecap="round" stroke-linejoin="round"/>
</svg>
